<svg width="545" height="484" fill="none" xmlns="http://www.w3.org/2000/svg"><g clip-path="url(#a)" fill="#1C2225" fill-opacity=".2"><path d="M544.27 483.46h-16.999v-17.266h16.999v17.266ZM527.271 483.46h-16.998v-17.266h16.998v17.266ZM459.279 483.46h-16.998v-17.266h16.998v17.266ZM442.281 483.46h-16.998v-17.266h16.998v17.266ZM425.282 483.46h-16.998v-17.266h16.998v17.266ZM323.295 483.46h-16.998v-17.266h16.998v17.266ZM221.31 483.46h-16.998v-17.266h16.998v17.266ZM119.322 483.46h-16.998v-17.266h16.998v17.266ZM102.324 483.46H85.326v-17.266h16.998v17.266Z"/><path d="M85.326 483.46H68.328v-17.266h16.998v17.266ZM17.334 483.46H.336v-17.266h16.998v17.266ZM544.27 466.194h-16.999v-17.267h16.999v17.267ZM476.276 466.194h-16.998v-17.267h16.998v17.267Z"/><path d="M459.279 466.194h-16.998v-17.267h16.998v17.267ZM442.281 466.194h-16.998v-17.267h16.998v17.267ZM323.295 466.194h-16.998v-17.267h16.998v17.267ZM306.297 466.194h-16.998v-17.267h16.998v17.267ZM238.308 466.194H221.31v-17.267h16.998v17.267ZM221.31 466.194h-16.998v-17.267h16.998v17.267ZM102.324 466.194H85.326v-17.267h16.998v17.267Z"/><path d="M85.326 466.194H68.328v-17.267h16.998v17.267ZM68.328 466.194H51.33v-17.267h16.998v17.267ZM493.275 448.927h-16.998v-17.266h16.998v17.266ZM476.276 448.927h-16.998v-17.266h16.998v17.266Z"/><path d="M459.279 448.927h-16.998v-17.266h16.998v17.266ZM323.295 448.927h-16.998v-17.266h16.998v17.266ZM306.297 448.927h-16.998v-17.266h16.998v17.266ZM289.298 448.927H272.3v-17.266h16.998v17.266ZM255.306 448.927h-16.998v-17.266h16.998v17.266ZM238.308 448.927H221.31v-17.266h16.998v17.266ZM221.31 448.927h-16.998v-17.266h16.998v17.266ZM85.326 448.927H68.328v-17.266h16.998v17.266ZM68.328 448.927H51.33v-17.266h16.998v17.266ZM51.33 448.927H34.332v-17.266H51.33v17.266ZM510.272 431.661h-16.998v-17.266h16.998v17.266Z"/><path d="M493.275 431.661h-16.998v-17.266h16.998v17.266ZM476.276 431.661h-16.998v-17.266h16.998v17.266ZM391.287 431.661h-16.998v-17.266h16.998v17.266ZM374.289 431.661h-16.998v-17.266h16.998v17.266ZM357.291 431.661h-16.998v-17.266h16.998v17.266ZM306.297 431.661h-16.998v-17.266h16.998v17.266ZM289.298 431.661H272.3v-17.266h16.998v17.266ZM255.306 431.661h-16.998v-17.266h16.998v17.266ZM238.308 431.661H221.31v-17.266h16.998v17.266ZM187.314 431.661h-16.998v-17.266h16.998v17.266ZM170.316 431.661h-16.998v-17.266h16.998v17.266ZM153.318 431.661H136.32v-17.266h16.998v17.266ZM68.328 431.661H51.33v-17.266h16.998v17.266ZM51.33 431.661H34.332v-17.266H51.33v17.266ZM34.332 431.661H17.334v-17.266h16.998v17.266ZM527.271 414.395h-16.998v-17.267h16.998v17.267ZM510.272 414.395h-16.998v-17.267h16.998v17.267Z"/><path d="M493.275 414.395h-16.998v-17.267h16.998v17.267ZM374.289 414.395h-16.998v-17.267h16.998v17.267ZM357.291 414.395h-16.998v-17.267h16.998v17.267ZM340.293 414.395h-16.998v-17.267h16.998v17.267ZM289.298 414.395H272.3v-17.267h16.998v17.267ZM255.306 414.395h-16.998v-17.267h16.998v17.267ZM204.312 414.395h-16.998v-17.267h16.998v17.267ZM187.314 414.395h-16.998v-17.267h16.998v17.267ZM170.316 414.395h-16.998v-17.267h16.998v17.267ZM51.33 414.395H34.332v-17.267H51.33v17.267ZM34.332 414.395H17.334v-17.267h16.998v17.267ZM17.334 414.395H.336v-17.267h16.998v17.267ZM527.271 397.128h-16.998v-17.266h16.998v17.266ZM510.272 397.128h-16.998v-17.266h16.998v17.266ZM357.291 397.128h-16.998v-17.266h16.998v17.266ZM340.293 397.128h-16.998v-17.266h16.998v17.266ZM323.295 397.128h-16.998v-17.266h16.998v17.266ZM221.31 397.128h-16.998v-17.266h16.998v17.266ZM204.312 397.128h-16.998v-17.266h16.998v17.266ZM187.314 397.128h-16.998v-17.266h16.998v17.266ZM34.332 397.128H17.334v-17.266h16.998v17.266ZM17.334 397.128H.336v-17.266h16.998v17.266Z"/><path d="M527.271 379.862h-16.998v-17.267h16.998v17.267ZM442.281 379.862h-16.998v-17.267h16.998v17.267ZM289.298 379.862H272.3v-17.267h16.998v17.267ZM255.306 379.862h-16.998v-17.267h16.998v17.267ZM102.324 379.862H85.326v-17.267h16.998v17.267ZM17.334 379.862H.336v-17.267h16.998v17.267ZM442.281 362.595h-16.998v-17.266h16.998v17.266ZM425.282 362.595h-16.998v-17.266h16.998v17.266ZM306.297 362.595h-16.998v-17.266h16.998v17.266ZM289.298 362.595H272.3v-17.266h16.998v17.266ZM255.306 362.595h-16.998v-17.266h16.998v17.266ZM238.308 362.595H221.31v-17.266h16.998v17.266ZM119.322 362.595h-16.998v-17.266h16.998v17.266ZM102.324 362.595H85.326v-17.266h16.998v17.266ZM442.281 345.329h-16.998v-17.267h16.998v17.267ZM425.282 345.329h-16.998v-17.267h16.998v17.267ZM408.284 345.329h-16.998v-17.267h16.998v17.267ZM323.295 345.329h-16.998v-17.267h16.998v17.267ZM306.297 345.329h-16.998v-17.267h16.998v17.267ZM238.308 345.329H221.31v-17.267h16.998v17.267ZM221.31 345.329h-16.998v-17.267h16.998v17.267ZM136.32 345.329h-16.998v-17.267h16.998v17.267Z"/><path d="M119.322 345.329h-16.998v-17.267h16.998v17.267ZM102.324 345.329H85.326v-17.267h16.998v17.267ZM425.282 328.062h-16.998v-17.266h16.998v17.266ZM408.284 328.062h-16.998v-17.266h16.998v17.266ZM340.293 328.062h-16.998v-17.266h16.998v17.266ZM323.295 328.062h-16.998v-17.266h16.998v17.266ZM221.31 328.062h-16.998v-17.266h16.998v17.266ZM204.312 328.062h-16.998v-17.266h16.998v17.266ZM136.32 328.062h-16.998v-17.266h16.998v17.266Z"/><path d="M119.322 328.062h-16.998v-17.266h16.998v17.266ZM493.275 310.796h-16.998v-17.267h16.998v17.267ZM476.276 310.796h-16.998v-17.267h16.998v17.267Z"/><path d="M459.279 310.796h-16.998v-17.267h16.998v17.267ZM408.284 310.796h-16.998v-17.267h16.998v17.267ZM357.291 310.796h-16.998v-17.267h16.998v17.267ZM340.293 310.796h-16.998v-17.267h16.998v17.267ZM204.312 310.796h-16.998v-17.267h16.998v17.267ZM187.314 310.796h-16.998v-17.267h16.998v17.267ZM136.32 310.796h-16.998v-17.267h16.998v17.267ZM85.326 310.796H68.328v-17.267h16.998v17.267ZM68.328 310.796H51.33v-17.267h16.998v17.267ZM51.33 310.796H34.332v-17.267H51.33v17.267ZM544.27 293.53h-16.999v-17.267h16.999v17.267Z"/><path d="M476.276 293.53h-16.998v-17.267h16.998v17.267Z"/><path d="M459.279 293.53h-16.998v-17.267h16.998v17.267ZM442.281 293.53h-16.998v-17.267h16.998v17.267ZM374.289 293.53h-16.998v-17.267h16.998v17.267ZM357.291 293.53h-16.998v-17.267h16.998v17.267ZM187.314 293.53h-16.998v-17.267h16.998v17.267ZM170.316 293.53h-16.998v-17.267h16.998v17.267ZM102.324 293.53H85.326v-17.267h16.998v17.267Z"/><path d="M85.326 293.53H68.328v-17.267h16.998v17.267ZM68.328 293.53H51.33v-17.267h16.998v17.267ZM544.27 276.263h-16.999v-17.266h16.999v17.266ZM527.271 276.263h-16.998v-17.266h16.998v17.266ZM459.279 276.263h-16.998v-17.266h16.998v17.266ZM442.281 276.263h-16.998v-17.266h16.998v17.266ZM425.282 276.263h-16.998v-17.266h16.998v17.266ZM391.287 276.263h-16.998v-17.266h16.998v17.266ZM374.289 276.263h-16.998v-17.266h16.998v17.266ZM272.304 276.263h-16.998v-17.266h16.998v17.266ZM170.316 276.263h-16.998v-17.266h16.998v17.266ZM153.318 276.263H136.32v-17.266h16.998v17.266ZM119.322 276.263h-16.998v-17.266h16.998v17.266ZM102.324 276.263H85.326v-17.266h16.998v17.266Z"/><path d="M85.326 276.263H68.328v-17.266h16.998v17.266ZM16.998 258.997H0V241.73h16.998v17.267ZM34.332 258.997H17.334V241.73h16.998v17.267Z"/><path d="M16.998 276.263H0v-17.266h16.998v17.266ZM16.998 241.73H0v-17.266h16.998v17.266ZM544.27 258.997h-16.999V241.73h16.999v17.267ZM527.271 258.997h-16.998V241.73h16.998v17.267ZM510.272 258.997h-16.998V241.73h16.998v17.267ZM289.298 258.997H272.3V241.73h16.998v17.267Z"/><path d="M272.304 258.997h-16.998V241.73h16.998v17.267Z"/><path d="M255.306 258.997h-16.998V241.73h16.998v17.267ZM544.27 241.73h-16.999v-17.266h16.999v17.266ZM527.271 241.73h-16.998v-17.266h16.998v17.266ZM459.279 241.73h-16.998v-17.266h16.998v17.266ZM442.281 241.73h-16.998v-17.266h16.998v17.266ZM425.282 241.73h-16.998v-17.266h16.998v17.266ZM391.287 241.73h-16.998v-17.266h16.998v17.266ZM374.289 241.73h-16.998v-17.266h16.998v17.266ZM272.304 241.73h-16.998v-17.266h16.998v17.266ZM170.316 241.73h-16.998v-17.266h16.998v17.266ZM153.318 241.73H136.32v-17.266h16.998v17.266ZM119.322 241.73h-16.998v-17.266h16.998v17.266ZM102.324 241.73H85.326v-17.266h16.998v17.266Z"/><path d="M85.326 241.73H68.328v-17.266h16.998v17.266ZM544.27 224.464h-16.999v-17.267h16.999v17.267ZM476.276 224.464h-16.998v-17.267h16.998v17.267Z"/><path d="M459.279 224.464h-16.998v-17.267h16.998v17.267ZM442.281 224.464h-16.998v-17.267h16.998v17.267ZM374.289 224.464h-16.998v-17.267h16.998v17.267ZM357.291 224.464h-16.998v-17.267h16.998v17.267ZM187.314 224.464h-16.998v-17.267h16.998v17.267ZM170.316 224.464h-16.998v-17.267h16.998v17.267ZM102.324 224.464H85.326v-17.267h16.998v17.267Z"/><path d="M85.326 224.464H68.328v-17.267h16.998v17.267ZM68.328 224.464H51.33v-17.267h16.998v17.267ZM493.275 207.197h-16.998v-17.266h16.998v17.266ZM476.276 207.197h-16.998v-17.266h16.998v17.266Z"/><path d="M459.279 207.197h-16.998v-17.266h16.998v17.266ZM408.284 207.197h-16.998v-17.266h16.998v17.266ZM357.291 207.197h-16.998v-17.266h16.998v17.266ZM340.293 207.197h-16.998v-17.266h16.998v17.266ZM204.312 207.197h-16.998v-17.266h16.998v17.266ZM187.314 207.197h-16.998v-17.266h16.998v17.266ZM136.32 207.197h-16.998v-17.266h16.998v17.266ZM85.326 207.197H68.328v-17.266h16.998v17.266ZM68.328 207.197H51.33v-17.266h16.998v17.266ZM51.33 207.197H34.332v-17.266H51.33v17.266ZM425.282 189.931h-16.998v-17.267h16.998v17.267ZM408.284 189.931h-16.998v-17.267h16.998v17.267ZM340.293 189.931h-16.998v-17.267h16.998v17.267ZM323.295 189.931h-16.998v-17.267h16.998v17.267ZM221.31 189.931h-16.998v-17.267h16.998v17.267ZM204.312 189.931h-16.998v-17.267h16.998v17.267ZM136.32 189.931h-16.998v-17.267h16.998v17.267Z"/><path d="M119.322 189.931h-16.998v-17.267h16.998v17.267ZM442.281 172.664h-16.998v-17.266h16.998v17.266ZM425.282 172.664h-16.998v-17.266h16.998v17.266ZM408.284 172.664h-16.998v-17.266h16.998v17.266ZM323.295 172.664h-16.998v-17.266h16.998v17.266ZM306.297 172.664h-16.998v-17.266h16.998v17.266ZM238.308 172.664H221.31v-17.266h16.998v17.266ZM221.31 172.664h-16.998v-17.266h16.998v17.266ZM136.32 172.664h-16.998v-17.266h16.998v17.266Z"/><path d="M119.322 172.664h-16.998v-17.266h16.998v17.266ZM102.324 172.664H85.326v-17.266h16.998v17.266ZM442.281 155.398h-16.998v-17.266h16.998v17.266ZM425.282 155.398h-16.998v-17.266h16.998v17.266ZM306.297 155.398h-16.998v-17.266h16.998v17.266ZM289.298 155.398H272.3v-17.266h16.998v17.266ZM255.306 155.398h-16.998v-17.266h16.998v17.266ZM238.308 155.398H221.31v-17.266h16.998v17.266ZM119.322 155.398h-16.998v-17.266h16.998v17.266ZM102.324 155.398H85.326v-17.266h16.998v17.266ZM442.281 138.132h-16.998v-17.267h16.998v17.267ZM289.298 138.132H272.3v-17.267h16.998v17.267ZM255.306 138.132h-16.998v-17.267h16.998v17.267ZM102.324 138.132H85.326v-17.267h16.998v17.267ZM527.271 120.865h-16.998v-17.266h16.998v17.266ZM17.334 120.865H.336v-17.266h16.998v17.266Z"/><path d="M527.271 103.599h-16.998V86.332h16.998V103.6ZM510.272 103.599h-16.998V86.332h16.998V103.6ZM357.291 103.599h-16.998V86.332h16.998V103.6ZM340.293 103.599h-16.998V86.332h16.998V103.6ZM323.295 103.599h-16.998V86.332h16.998V103.6ZM221.31 103.599h-16.998V86.332h16.998V103.6ZM204.312 103.599h-16.998V86.332h16.998V103.6ZM187.314 103.599h-16.998V86.332h16.998V103.6ZM34.332 103.599H17.334V86.332h16.998V103.6ZM17.334 103.599H.336V86.332h16.998V103.6ZM527.271 86.332h-16.998V69.066h16.998v17.266ZM510.272 86.332h-16.998V69.066h16.998v17.266Z"/><path d="M493.275 86.332h-16.998V69.066h16.998v17.266ZM374.289 86.332h-16.998V69.066h16.998v17.266ZM357.291 86.332h-16.998V69.066h16.998v17.266ZM340.293 86.332h-16.998V69.066h16.998v17.266ZM289.298 86.332H272.3V69.066h16.998v17.266ZM255.306 86.332h-16.998V69.066h16.998v17.266ZM204.312 86.332h-16.998V69.066h16.998v17.266ZM187.314 86.332h-16.998V69.066h16.998v17.266ZM170.316 86.332h-16.998V69.066h16.998v17.266ZM51.33 86.332H34.332V69.066H51.33v17.266ZM34.332 86.332H17.334V69.066h16.998v17.266ZM17.334 86.332H.336V69.066h16.998v17.266ZM510.272 69.066h-16.998V51.799h16.998v17.267Z"/><path d="M493.275 69.066h-16.998V51.799h16.998v17.267ZM476.276 69.066h-16.998V51.799h16.998v17.267ZM391.287 69.066h-16.998V51.799h16.998v17.267ZM374.289 69.066h-16.998V51.799h16.998v17.267ZM357.291 69.066h-16.998V51.799h16.998v17.267ZM306.297 69.066h-16.998V51.799h16.998v17.267ZM289.298 69.066H272.3V51.799h16.998v17.267ZM255.306 69.066h-16.998V51.799h16.998v17.267ZM238.308 69.066H221.31V51.799h16.998v17.267ZM187.314 69.066h-16.998V51.799h16.998v17.267ZM170.316 69.066h-16.998V51.799h16.998v17.267ZM153.318 69.066H136.32V51.799h16.998v17.267ZM68.328 69.066H51.33V51.799h16.998v17.267ZM51.33 69.066H34.332V51.799H51.33v17.267ZM34.332 69.066H17.334V51.799h16.998v17.267Z"/><path d="M493.275 51.8h-16.998V34.532h16.998v17.266ZM476.276 51.8h-16.998V34.532h16.998v17.266Z"/><path d="M459.279 51.8h-16.998V34.532h16.998v17.266ZM323.295 51.8h-16.998V34.532h16.998v17.266ZM306.297 51.8h-16.998V34.532h16.998v17.266ZM289.298 51.8H272.3V34.532h16.998v17.266ZM255.306 51.8h-16.998V34.532h16.998v17.266ZM238.308 51.8H221.31V34.532h16.998v17.266ZM221.31 51.8h-16.998V34.532h16.998v17.266ZM85.326 51.8H68.328V34.532h16.998v17.266ZM68.328 51.8H51.33V34.532h16.998v17.266ZM51.33 51.8H34.332V34.532H51.33v17.266ZM544.27 34.533h-16.999V17.266h16.999v17.267Z"/><path d="M476.276 34.533h-16.998V17.266h16.998v17.267Z"/><path d="M459.279 34.533h-16.998V17.266h16.998v17.267ZM442.281 34.533h-16.998V17.266h16.998v17.267ZM323.295 34.533h-16.998V17.266h16.998v17.267ZM306.297 34.533h-16.998V17.266h16.998v17.267ZM238.308 34.533H221.31V17.266h16.998v17.267ZM221.31 34.533h-16.998V17.266h16.998v17.267ZM102.324 34.533H85.326V17.266h16.998v17.267Z"/><path d="M85.326 34.533H68.328V17.266h16.998v17.267ZM68.328 34.533H51.33V17.266h16.998v17.267ZM544.27 17.266h-16.999V0h16.999v17.266ZM527.271 17.266h-16.998V0h16.998v17.266ZM459.279 17.266h-16.998V0h16.998v17.266ZM442.281 17.266h-16.998V0h16.998v17.266ZM425.282 17.266h-16.998V0h16.998v17.266ZM323.295 17.266h-16.998V0h16.998v17.266ZM221.31 17.266h-16.998V0h16.998v17.266ZM119.322 17.266h-16.998V0h16.998v17.266ZM102.324 17.266H85.326V0h16.998v17.266Z"/><path d="M85.326 17.266H68.328V0h16.998v17.266ZM17.334 17.266H.336V0h16.998v17.266Z"/></g><defs><clipPath id="a"><path fill="#fff" d="M0 0h545v484H0z"/></clipPath></defs></svg>