<svg width="44" height="39" fill="none" xmlns="http://www.w3.org/2000/svg"><path d="M43.94 38.956h-1.37v-1.39h1.372v1.39Zm-1.371 0h-1.373v-1.39h1.373v1.39Zm-5.489 0h-1.373v-1.39h1.372v1.39Zm-1.373 0h-1.372v-1.39h1.372v1.39Zm-1.372 0h-1.373v-1.39h1.373v1.39Zm-8.235 0h-1.372v-1.39h1.373v1.39Zm-8.233 0h-1.372v-1.39h1.372v1.39Zm-8.234 0H8.261v-1.39h1.372v1.39Zm-1.372 0H6.889v-1.39H8.26v1.39Z" fill="#ECD979"/><path d="M6.889 38.956H5.516v-1.39H6.89v1.39Zm-5.489 0H.026v-1.39H1.4v1.39Zm42.54-1.391h-1.37v-1.391h1.372v1.391Zm-5.488 0h-1.373v-1.391h1.373v1.391Z" fill="#ECD979"/><path d="M37.08 37.565h-1.373v-1.391h1.372v1.391Zm-1.373 0h-1.372v-1.391h1.372v1.391Zm-9.607 0h-1.372v-1.391h1.373v1.391Z" fill="#ECD979"/><path d="M24.729 37.565h-1.373v-1.391h1.372v1.391Zm-5.489 0h-1.373v-1.391h1.372v1.391Z" fill="#ECD979"/><path d="M17.867 37.565h-1.372v-1.391h1.372v1.391Zm-9.606 0H6.889v-1.391H8.26v1.391Z" fill="#ECD979"/><path d="M6.889 37.565H5.516v-1.391H6.89v1.391Zm-1.373 0H4.144v-1.391h1.372v1.391Zm34.308-1.391h-1.372v-1.391h1.372v1.39Zm-1.372 0h-1.373v-1.391h1.373v1.39Z" fill="#ECD979"/><path d="M37.08 36.174h-1.373v-1.391h1.372v1.39Zm-10.98 0h-1.372v-1.391h1.373v1.39Z" fill="#ECD979"/><path d="M24.729 36.174h-1.373v-1.391h1.372v1.39Z" fill="#ECD979"/><path d="M23.356 36.174h-1.372v-1.391h1.372v1.39Zm-2.744 0H19.24v-1.391h1.372v1.39Zm-1.372 0h-1.373v-1.391h1.372v1.39ZM17.867 36.174h-1.372v-1.391h1.372v1.39Zm-10.978 0H5.516v-1.391H6.89v1.39Zm-1.373 0H4.144v-1.391h1.372v1.39Zm-1.372 0H2.772v-1.391h1.372v1.39Zm37.052-1.391h-1.372V33.39h1.372v1.392Zm-1.372 0h-1.372V33.39h1.372v1.392Zm-1.372 0h-1.373V33.39h1.373v1.392Zm-6.862 0h-1.372V33.39h1.372v1.392Zm-1.372 0h-1.372V33.39h1.372v1.392Zm-1.372 0h-1.373V33.39h1.373v1.392Zm-4.117 0h-1.373V33.39h1.372v1.392Z" fill="#ECD979"/><path d="M23.356 34.783h-1.372V33.39h1.372v1.392Zm-2.744 0H19.24V33.39h1.372v1.392Zm-1.372 0h-1.373V33.39h1.372v1.392Zm-4.117 0H13.75V33.39h1.373v1.392Zm-1.373 0h-1.372V33.39h1.372v1.392Zm-1.372 0h-1.372V33.39h1.372v1.392Zm-6.862 0H4.144V33.39h1.372v1.392Zm-1.372 0H2.772V33.39h1.372v1.392Z" fill="#ECD979"/><path d="M2.772 34.783H1.399V33.39h1.373v1.392Zm39.797-1.392h-1.373V32h1.373v1.391Zm-1.373 0h-1.372V32h1.372v1.391Zm-1.372 0h-1.372V32h1.372v1.391Zm-9.606 0h-1.372V32h1.372v1.391Zm-1.372 0h-1.373V32h1.373v1.391Zm-1.373 0h-1.372V32h1.372v1.391Zm-4.117 0h-1.372V32h1.372v1.391Zm-2.744 0H19.24V32h1.372v1.391Zm-4.117 0h-1.372V32h1.372v1.391Zm-1.372 0H13.75V32h1.373v1.391Zm-1.373 0h-1.372V32h1.372v1.391Z" fill="#ECD979"/><path d="M4.144 33.391H2.772V32h1.372v1.391Z" fill="#ECD979"/><path d="M2.772 33.391H1.399V32h1.373v1.391Z" fill="#ECD979"/><path d="M1.4 33.391H.026V32H1.4v1.391ZM42.569 32h-1.373v-1.391h1.373V32Zm-1.373 0h-1.372v-1.391h1.372V32Zm-12.35 0h-1.373v-1.391h1.373V32Zm-1.373 0h-1.372v-1.391h1.372V32ZM26.1 32h-1.372v-1.391h1.373V32Zm-8.233 0h-1.372v-1.391h1.372V32Zm-1.372 0h-1.372v-1.391h1.372V32Zm-1.372 0H13.75v-1.391h1.373V32ZM2.772 32H1.399v-1.391h1.373V32Z" fill="#ECD979"/><path d="M1.4 32H.026v-1.391H1.4V32Zm41.169-1.391h-1.373v-1.392h1.373v1.392Zm-6.862 0h-1.372v-1.392h1.372v1.392Zm-12.351 0h-1.372v-1.392h1.372v1.392Zm-2.744 0H19.24v-1.392h1.372v1.392Zm-12.351 0H6.889v-1.392H8.26v1.392Zm-6.861 0H.026v-1.392H1.4v1.392Zm34.307-1.392h-1.372v-1.39h1.372v1.39Zm-1.372 0h-1.373v-1.39h1.373v1.39Zm-9.606 0h-1.373v-1.39h1.372v1.39Z" fill="#ECD979"/><path d="M23.356 29.217h-1.372v-1.39h1.372v1.39Zm-2.744 0H19.24v-1.39h1.372v1.39Zm-1.372 0h-1.373v-1.39h1.372v1.39Zm-9.607 0H8.261v-1.39h1.372v1.39Zm-1.372 0H6.889v-1.39H8.26v1.39Zm27.446-1.391h-1.372v-1.391h1.372v1.391Zm-1.372 0h-1.373v-1.391h1.373v1.391Zm-1.373 0H31.59v-1.391h1.372v1.391Zm-6.862 0h-1.372v-1.391h1.373v1.391Z" fill="#ECD979"/><path d="M24.729 27.826h-1.373v-1.391h1.372v1.391Zm-5.489 0h-1.373v-1.391h1.372v1.391Z" fill="#ECD979"/><path d="M17.867 27.826h-1.372v-1.391h1.372v1.391Zm-6.861 0H9.633v-1.391h1.373v1.391Zm-1.373 0H8.261v-1.391h1.372v1.391Zm-1.372 0H6.889v-1.391H8.26v1.391Zm26.074-1.391h-1.373v-1.391h1.373v1.39Zm-1.373 0H31.59v-1.391h1.372v1.39Zm-5.489 0h-1.372v-1.391h1.372v1.39ZM26.1 26.435h-1.372v-1.391h1.373v1.39Zm-8.233 0h-1.372v-1.391h1.372v1.39Zm-1.372 0h-1.372v-1.391h1.372v1.39Zm-5.489 0H9.633v-1.391h1.373v1.39Zm-1.373 0H8.261v-1.391h1.372v1.39Zm30.191-1.391h-1.372v-1.392h1.372v1.392Zm-1.372 0h-1.373v-1.392h1.373v1.392Z" fill="#ECD979"/><path d="M37.08 25.044h-1.373v-1.392h1.372v1.392Zm-4.118 0H31.59v-1.392h1.372v1.392Zm-4.116 0h-1.373v-1.392h1.373v1.392Zm-1.373 0h-1.372v-1.392h1.372v1.392Zm-10.978 0h-1.372v-1.392h1.372v1.392Zm-1.372 0H13.75v-1.392h1.373v1.392Zm-4.117 0H9.633v-1.392h1.373v1.392Zm-4.117 0H5.516v-1.392H6.89v1.392Zm-1.373 0H4.144v-1.392h1.372v1.392Zm-1.372 0H2.772v-1.392h1.372v1.392Zm39.796-1.392h-1.37v-1.391h1.372v1.391Zm-5.488 0h-1.373v-1.391h1.373v1.391Z" fill="#ECD979"/><path d="M37.08 23.652h-1.373v-1.391h1.372v1.391Zm-1.373 0h-1.372v-1.391h1.372v1.391Zm-5.489 0h-1.372v-1.391h1.372v1.391Zm-1.372 0h-1.373v-1.391h1.373v1.391Zm-13.723 0H13.75v-1.391h1.373v1.391Zm-1.373 0h-1.372v-1.391h1.372v1.391Zm-5.489 0H6.889v-1.391H8.26v1.391Z" fill="#ECD979"/><path d="M6.889 23.652H5.516v-1.391H6.89v1.391Zm-1.373 0H4.144v-1.391h1.372v1.391ZM43.94 22.26h-1.37v-1.39h1.372v1.39Zm-1.371 0h-1.373v-1.39h1.373v1.39Zm-5.489 0h-1.373v-1.39h1.372v1.39Zm-1.373 0h-1.372v-1.39h1.372v1.39Zm-1.372 0h-1.373v-1.39h1.373v1.39Zm-2.745 0h-1.372v-1.39h1.372v1.39Zm-1.372 0h-1.372v-1.39h1.372v1.39Zm-8.234 0h-1.372v-1.39h1.372v1.39Zm-8.234 0h-1.372v-1.39h1.372v1.39Zm-1.372 0h-1.372v-1.39h1.372v1.39Zm-2.745 0H8.261v-1.39h1.372v1.39Zm-1.372 0H6.889v-1.39H8.26v1.39Z" fill="#ECD979"/><path d="M6.889 22.26H5.516v-1.39H6.89v1.39Zm-5.517-1.39H0v-1.392h1.372v1.392Zm1.4 0H1.399v-1.392h1.373v1.392Zm-1.4 1.39H0v-1.39h1.372v1.39Zm0-2.782H0v-1.391h1.372v1.391ZM43.94 20.87h-1.37v-1.392h1.372v1.392Zm-1.371 0h-1.373v-1.392h1.373v1.392Zm-1.373 0h-1.372v-1.392h1.372v1.392Zm-17.84 0h-1.372v-1.392h1.372v1.392Zm-1.372 0h-1.372v-1.392h1.372v1.392Zm-1.372 0H19.24v-1.392h1.372v1.392Zm23.328-1.392h-1.37v-1.391h1.372v1.391Zm-1.371 0h-1.373v-1.391h1.373v1.391Zm-5.489 0h-1.373v-1.391h1.372v1.391Zm-1.373 0h-1.372v-1.391h1.372v1.391Zm-1.372 0h-1.373v-1.391h1.373v1.391Zm-2.745 0h-1.372v-1.391h1.372v1.391Zm-1.372 0h-1.372v-1.391h1.372v1.391Zm-8.234 0h-1.372v-1.391h1.372v1.391Zm-8.234 0h-1.372v-1.391h1.372v1.391Zm-1.372 0h-1.372v-1.391h1.372v1.391Zm-2.745 0H8.261v-1.391h1.372v1.391Zm-1.372 0H6.889v-1.391H8.26v1.391Z" fill="#ECD979"/><path d="M6.889 19.478H5.516v-1.391H6.89v1.391Zm37.051-1.391h-1.37v-1.391h1.372v1.39Zm-5.488 0h-1.373v-1.391h1.373v1.39Z" fill="#ECD979"/><path d="M37.08 18.087h-1.373v-1.391h1.372v1.39Zm-1.373 0h-1.372v-1.391h1.372v1.39Zm-5.489 0h-1.372v-1.391h1.372v1.39Zm-1.372 0h-1.373v-1.391h1.373v1.39Zm-13.723 0H13.75v-1.391h1.373v1.39Zm-1.373 0h-1.372v-1.391h1.372v1.39Zm-5.489 0H6.889v-1.391H8.26v1.39Z" fill="#ECD979"/><path d="M6.889 18.087H5.516v-1.391H6.89v1.39Zm-1.373 0H4.144v-1.391h1.372v1.39Zm34.308-1.391h-1.372v-1.392h1.372v1.392Zm-1.372 0h-1.373v-1.392h1.373v1.392Z" fill="#ECD979"/><path d="M37.08 16.696h-1.373v-1.392h1.372v1.392Zm-4.118 0H31.59v-1.392h1.372v1.392Zm-4.116 0h-1.373v-1.392h1.373v1.392Zm-1.373 0h-1.372v-1.392h1.372v1.392Zm-10.978 0h-1.372v-1.392h1.372v1.392Zm-1.372 0H13.75v-1.392h1.373v1.392Zm-4.117 0H9.633v-1.392h1.373v1.392Zm-4.117 0H5.516v-1.392H6.89v1.392Zm-1.373 0H4.144v-1.392h1.372v1.392Zm-1.372 0H2.772v-1.392h1.372v1.392Zm30.191-1.392h-1.373v-1.391h1.373v1.391Zm-1.373 0H31.59v-1.391h1.372v1.391Zm-5.489 0h-1.372v-1.391h1.372v1.391Z" fill="#ECD979"/><path d="M26.1 15.304h-1.372v-1.391h1.373v1.391Zm-8.233 0h-1.372v-1.391h1.372v1.391Zm-1.372 0h-1.372v-1.391h1.372v1.391Zm-5.489 0H9.633v-1.391h1.373v1.391Zm-1.373 0H8.261v-1.391h1.372v1.391Zm26.074-1.391h-1.372v-1.391h1.372v1.391Zm-1.372 0h-1.373v-1.391h1.373v1.391Zm-1.373 0H31.59v-1.391h1.372v1.391Zm-6.862 0h-1.372v-1.391h1.373v1.391Z" fill="#ECD979"/><path d="M24.729 13.913h-1.373v-1.391h1.372v1.391Zm-5.489 0h-1.373v-1.391h1.372v1.391Z" fill="#ECD979"/><path d="M17.867 13.913h-1.372v-1.391h1.372v1.391Zm-6.861 0H9.633v-1.391h1.373v1.391Zm-1.373 0H8.261v-1.391h1.372v1.391Zm-1.372 0H6.889v-1.391H8.26v1.391Zm27.446-1.391h-1.372V11.13h1.372v1.392Zm-1.372 0h-1.373V11.13h1.373v1.392Zm-9.606 0h-1.373V11.13h1.372v1.392Z" fill="#ECD979"/><path d="M23.356 12.522h-1.372V11.13h1.372v1.392Zm-2.744 0H19.24V11.13h1.372v1.392Zm-1.372 0h-1.373V11.13h1.372v1.392Zm-9.607 0H8.261V11.13h1.372v1.392Zm-1.372 0H6.889V11.13H8.26v1.392Zm27.446-1.392h-1.372V9.74h1.372v1.39Zm-12.351 0h-1.372V9.74h1.372v1.39Zm-2.744 0H19.24V9.74h1.372v1.39Zm-12.351 0H6.889V9.74H8.26v1.39Zm34.308-1.39h-1.373V8.347h1.373v1.391ZM1.4 9.74H.026V8.347H1.4v1.391Z" fill="#ECD979"/><path d="M42.569 8.348h-1.373V6.956h1.373v1.392Zm-1.373 0h-1.372V6.956h1.372v1.392Zm-12.35 0h-1.373V6.956h1.373v1.392Zm-1.373 0h-1.372V6.956h1.372v1.392ZM26.1 8.348h-1.372V6.956h1.373v1.392Zm-8.233 0h-1.372V6.956h1.372v1.392Zm-1.372 0h-1.372V6.956h1.372v1.392Zm-1.372 0H13.75V6.956h1.373v1.392Zm-12.351 0H1.399V6.956h1.373v1.392Z" fill="#ECD979"/><path d="M1.4 8.348H.026V6.956H1.4v1.392Zm41.169-1.391h-1.373V5.565h1.373v1.392Zm-1.373 0h-1.372V5.565h1.372v1.392Zm-1.372 0h-1.372V5.565h1.372v1.392Zm-9.606 0h-1.372V5.565h1.372v1.392Zm-1.372 0h-1.373V5.565h1.373v1.392Zm-1.373 0h-1.372V5.565h1.372v1.392Zm-4.117 0h-1.372V5.565h1.372v1.392Zm-2.744 0H19.24V5.565h1.372v1.392Zm-4.117 0h-1.372V5.565h1.372v1.392Zm-1.372 0H13.75V5.565h1.373v1.392Zm-1.373 0h-1.372V5.565h1.372v1.392Zm-9.606 0H2.772V5.565h1.372v1.392Z" fill="#ECD979"/><path d="M2.772 6.957H1.399V5.565h1.373v1.392Z" fill="#ECD979"/><path d="M1.4 6.957H.026V5.565H1.4v1.392Zm39.796-1.392h-1.372V4.174h1.372v1.391Zm-1.372 0h-1.372V4.174h1.372v1.391Zm-1.372 0h-1.373V4.174h1.373v1.391Zm-6.862 0h-1.372V4.174h1.372v1.391Zm-1.372 0h-1.372V4.174h1.372v1.391Zm-1.372 0h-1.373V4.174h1.373v1.391Zm-4.117 0h-1.373V4.174h1.372v1.391Z" fill="#ECD979"/><path d="M23.356 5.565h-1.372V4.174h1.372v1.391Zm-2.744 0H19.24V4.174h1.372v1.391Zm-1.372 0h-1.373V4.174h1.372v1.391Zm-4.117 0H13.75V4.174h1.373v1.391Zm-1.373 0h-1.372V4.174h1.372v1.391Zm-1.372 0h-1.372V4.174h1.372v1.391Zm-6.862 0H4.144V4.174h1.372v1.391Zm-1.372 0H2.772V4.174h1.372v1.391Z" fill="#ECD979"/><path d="M2.772 5.565H1.399V4.174h1.373v1.391Zm37.052-1.391h-1.372V2.783h1.372v1.39Zm-1.372 0h-1.373V2.783h1.373v1.39Z" fill="#ECD979"/><path d="M37.08 4.174h-1.373V2.783h1.372v1.39Zm-10.98 0h-1.372V2.783h1.373v1.39Z" fill="#ECD979"/><path d="M24.729 4.174h-1.373V2.783h1.372v1.39Z" fill="#ECD979"/><path d="M23.356 4.174h-1.372V2.783h1.372v1.39Zm-2.744 0H19.24V2.783h1.372v1.39Zm-1.372 0h-1.373V2.783h1.372v1.39ZM17.867 4.174h-1.372V2.783h1.372v1.39Zm-10.978 0H5.516V2.783H6.89v1.39Zm-1.373 0H4.144V2.783h1.372v1.39Zm-1.372 0H2.772V2.783h1.372v1.39ZM43.94 2.783h-1.37V1.39h1.372v1.392Zm-5.488 0h-1.373V1.39h1.373v1.392Z" fill="#ECD979"/><path d="M37.08 2.783h-1.373V1.39h1.372v1.392Zm-1.373 0h-1.372V1.39h1.372v1.392Zm-9.607 0h-1.372V1.39h1.373v1.392Z" fill="#ECD979"/><path d="M24.729 2.783h-1.373V1.39h1.372v1.392Zm-5.489 0h-1.373V1.39h1.372v1.392Z" fill="#ECD979"/><path d="M17.867 2.783h-1.372V1.39h1.372v1.392Zm-9.606 0H6.889V1.39H8.26v1.392Z" fill="#ECD979"/><path d="M6.889 2.783H5.516V1.39H6.89v1.392Zm-1.373 0H4.144V1.39h1.372v1.392ZM43.94 1.391h-1.37V0h1.372v1.391Zm-1.371 0h-1.373V0h1.373v1.391Zm-5.489 0h-1.373V0h1.372v1.391Zm-1.373 0h-1.372V0h1.372v1.391Zm-1.372 0h-1.373V0h1.373v1.391Zm-8.235 0h-1.372V0h1.373v1.391Zm-8.233 0h-1.372V0h1.372v1.391Zm-8.234 0H8.261V0h1.372v1.391Z" fill="#ECD979"/><path d="M8.261 1.391H6.889V0H8.26v1.391Z" fill="#ECD979"/><path d="M6.889 1.391H5.516V0H6.89v1.391Zm-5.489 0H.026V0H1.4v1.391Z" fill="#ECD979"/></svg>