<!-- Generated by IcoMoon.io -->
<svg version="1.1" xmlns="http://www.w3.org/2000/svg" width="36" height="32" viewBox="0 0 36 32">
<path d="M36.053 31.964h-1.124v-1.14h1.126v1.14zM34.928 31.964h-1.127v-1.14h1.127v1.14zM30.425 31.964h-1.127v-1.14h1.126v1.14zM29.298 31.964h-1.126v-1.14h1.126v1.14zM28.172 31.964h-1.127v-1.14h1.127v1.14zM21.415 31.964h-1.126v-1.14h1.127v1.14zM14.66 31.964h-1.126v-1.14h1.126v1.14zM7.904 31.964h-1.126v-1.14h1.126v1.14zM6.778 31.964h-1.126v-1.14h1.125v1.14z"></path>
<path d="M5.652 31.964h-1.127v-1.14h1.127v1.14zM1.149 31.964h-1.127v-1.14h1.127v1.14zM36.053 30.823h-1.124v-1.141h1.126v1.141zM31.55 30.823h-1.127v-1.141h1.127v1.141z"></path>
<path d="M30.425 30.823h-1.127v-1.141h1.126v1.141zM29.298 30.823h-1.126v-1.141h1.126v1.141zM21.415 30.823h-1.126v-1.141h1.127v1.141z"></path>
<path d="M20.29 30.823h-1.127v-1.141h1.126v1.141zM15.787 30.823h-1.127v-1.141h1.126v1.141z"></path>
<path d="M14.66 30.823h-1.126v-1.141h1.126v1.141zM6.778 30.823h-1.126v-1.141h1.125v1.141z"></path>
<path d="M5.652 30.823h-1.127v-1.141h1.127v1.141zM4.526 30.823h-1.126v-1.141h1.126v1.141zM32.676 29.681h-1.126v-1.141h1.126v1.14zM31.55 29.681h-1.127v-1.141h1.127v1.14z"></path>
<path d="M30.425 29.681h-1.127v-1.141h1.126v1.14zM21.415 29.681h-1.126v-1.141h1.127v1.14z"></path>
<path d="M20.29 29.681h-1.127v-1.141h1.126v1.14z"></path>
<path d="M19.164 29.681h-1.126v-1.141h1.126v1.14zM16.912 29.681h-1.126v-1.141h1.126v1.14zM15.787 29.681h-1.127v-1.141h1.126v1.14z"></path>
<path d="M14.66 29.681h-1.126v-1.141h1.126v1.14zM5.652 29.681h-1.127v-1.141h1.127v1.14zM4.526 29.681h-1.126v-1.141h1.126v1.14zM3.4 29.681h-1.126v-1.141h1.126v1.14zM33.802 28.54h-1.126v-1.143h1.126v1.142zM32.676 28.54h-1.126v-1.143h1.126v1.142zM31.55 28.54h-1.127v-1.143h1.127v1.142zM25.92 28.54h-1.126v-1.143h1.126v1.142zM24.794 28.54h-1.126v-1.143h1.126v1.142zM23.669 28.54h-1.127v-1.143h1.127v1.142zM20.29 28.54h-1.127v-1.143h1.126v1.142z"></path>
<path d="M19.164 28.54h-1.126v-1.143h1.126v1.142zM16.912 28.54h-1.126v-1.143h1.126v1.142zM15.787 28.54h-1.127v-1.143h1.126v1.142zM12.409 28.54h-1.127v-1.143h1.127v1.142zM11.282 28.54h-1.126v-1.143h1.126v1.142zM10.156 28.54h-1.126v-1.143h1.126v1.142zM4.526 28.54h-1.126v-1.143h1.126v1.142zM3.4 28.54h-1.126v-1.143h1.126v1.142z"></path>
<path d="M2.274 28.54h-1.127v-1.143h1.127v1.142zM34.928 27.398h-1.127v-1.141h1.127v1.141zM33.802 27.398h-1.126v-1.141h1.126v1.141zM32.676 27.398h-1.126v-1.141h1.126v1.141zM24.794 27.398h-1.126v-1.141h1.126v1.141zM23.669 27.398h-1.127v-1.141h1.127v1.141zM22.542 27.398h-1.126v-1.141h1.126v1.141zM19.164 27.398h-1.126v-1.141h1.126v1.141zM16.912 27.398h-1.126v-1.141h1.126v1.141zM13.534 27.398h-1.126v-1.141h1.126v1.141zM12.409 27.398h-1.127v-1.141h1.127v1.141zM11.282 27.398h-1.126v-1.141h1.126v1.141z"></path>
<path d="M3.4 27.398h-1.126v-1.141h1.126v1.141z"></path>
<path d="M2.274 27.398h-1.127v-1.141h1.127v1.141z"></path>
<path d="M1.149 27.398h-1.127v-1.141h1.127v1.141zM34.928 26.256h-1.127v-1.141h1.127v1.141zM33.802 26.256h-1.126v-1.141h1.126v1.141zM23.669 26.256h-1.127v-1.141h1.127v1.141zM22.542 26.256h-1.126v-1.141h1.126v1.141z"></path>
<path d="M21.415 26.256h-1.126v-1.141h1.127v1.141zM14.66 26.256h-1.126v-1.141h1.126v1.141zM13.534 26.256h-1.126v-1.141h1.126v1.141zM12.409 26.256h-1.127v-1.141h1.127v1.141zM2.274 26.256h-1.127v-1.141h1.127v1.141z"></path>
<path d="M1.149 26.256h-1.127v-1.141h1.127v1.141zM34.928 25.115h-1.127v-1.142h1.127v1.142zM29.298 25.115h-1.126v-1.142h1.126v1.142zM19.164 25.115h-1.126v-1.142h1.126v1.142zM16.912 25.115h-1.126v-1.142h1.126v1.142zM6.778 25.115h-1.126v-1.142h1.125v1.142zM1.149 25.115h-1.127v-1.142h1.127v1.142zM29.298 23.973h-1.126v-1.14h1.126v1.14zM28.172 23.973h-1.127v-1.14h1.127v1.14zM20.29 23.973h-1.127v-1.14h1.126v1.14z"></path>
<path d="M19.164 23.973h-1.126v-1.14h1.126v1.14zM16.912 23.973h-1.126v-1.14h1.126v1.14zM15.787 23.973h-1.127v-1.14h1.126v1.14zM7.904 23.973h-1.126v-1.14h1.126v1.14zM6.778 23.973h-1.126v-1.14h1.125v1.14zM29.298 22.832h-1.126v-1.141h1.126v1.141zM28.172 22.832h-1.127v-1.141h1.127v1.141zM27.046 22.832h-1.126v-1.141h1.126v1.141zM21.415 22.832h-1.126v-1.141h1.127v1.141z"></path>
<path d="M20.29 22.832h-1.127v-1.141h1.126v1.141zM15.787 22.832h-1.127v-1.141h1.126v1.141z"></path>
<path d="M14.66 22.832h-1.126v-1.141h1.126v1.141zM9.031 22.832h-1.127v-1.141h1.127v1.141zM7.904 22.832h-1.126v-1.141h1.126v1.141zM6.778 22.832h-1.126v-1.141h1.125v1.141zM28.172 21.69h-1.127v-1.141h1.127v1.14zM27.046 21.69h-1.126v-1.141h1.126v1.14zM22.542 21.69h-1.126v-1.141h1.126v1.14z"></path>
<path d="M21.415 21.69h-1.126v-1.141h1.127v1.14zM14.66 21.69h-1.126v-1.141h1.126v1.14zM13.534 21.69h-1.126v-1.141h1.126v1.14zM9.031 21.69h-1.127v-1.141h1.127v1.14zM7.904 21.69h-1.126v-1.141h1.126v1.14zM32.676 20.549h-1.126v-1.142h1.126v1.142zM31.55 20.549h-1.127v-1.142h1.127v1.142z"></path>
<path d="M30.425 20.549h-1.127v-1.142h1.126v1.142zM27.046 20.549h-1.126v-1.142h1.126v1.142zM23.669 20.549h-1.127v-1.142h1.127v1.142zM22.542 20.549h-1.126v-1.142h1.126v1.142zM13.534 20.549h-1.126v-1.142h1.126v1.142zM12.409 20.549h-1.127v-1.142h1.127v1.142zM9.031 20.549h-1.127v-1.142h1.127v1.142zM5.652 20.549h-1.127v-1.142h1.127v1.142zM4.526 20.549h-1.126v-1.142h1.126v1.142zM3.4 20.549h-1.126v-1.142h1.126v1.142zM36.053 19.407h-1.124v-1.141h1.126v1.141zM31.55 19.407h-1.127v-1.141h1.127v1.141z"></path>
<path d="M30.425 19.407h-1.127v-1.141h1.126v1.141zM29.298 19.407h-1.126v-1.141h1.126v1.141zM24.794 19.407h-1.126v-1.141h1.126v1.141zM23.669 19.407h-1.127v-1.141h1.127v1.141zM12.409 19.407h-1.127v-1.141h1.127v1.141zM11.282 19.407h-1.126v-1.141h1.126v1.141zM6.778 19.407h-1.126v-1.141h1.125v1.141z"></path>
<path d="M5.652 19.407h-1.127v-1.141h1.127v1.141zM4.526 19.407h-1.126v-1.141h1.126v1.141zM36.053 18.265h-1.124v-1.14h1.126v1.14zM34.928 18.265h-1.127v-1.14h1.127v1.14zM30.425 18.265h-1.127v-1.14h1.126v1.14zM29.298 18.265h-1.126v-1.14h1.126v1.14zM28.172 18.265h-1.127v-1.14h1.127v1.14zM25.92 18.265h-1.126v-1.14h1.126v1.14zM24.794 18.265h-1.126v-1.14h1.126v1.14zM18.038 18.265h-1.126v-1.14h1.126v1.14zM11.282 18.265h-1.126v-1.14h1.126v1.14zM10.156 18.265h-1.126v-1.14h1.126v1.14zM7.904 18.265h-1.126v-1.14h1.126v1.14zM6.778 18.265h-1.126v-1.14h1.125v1.14z"></path>
<path d="M5.652 18.265h-1.127v-1.14h1.127v1.14zM1.126 17.124h-1.126v-1.142h1.126v1.142zM2.274 17.124h-1.127v-1.142h1.127v1.142zM1.126 18.265h-1.126v-1.14h1.126v1.14zM1.126 15.982h-1.126v-1.141h1.126v1.141zM36.053 17.124h-1.124v-1.142h1.126v1.142zM34.928 17.124h-1.127v-1.142h1.127v1.142zM33.802 17.124h-1.126v-1.142h1.126v1.142zM19.164 17.124h-1.126v-1.142h1.126v1.142zM18.038 17.124h-1.126v-1.142h1.126v1.142zM16.912 17.124h-1.126v-1.142h1.126v1.142zM36.053 15.982h-1.124v-1.141h1.126v1.141zM34.928 15.982h-1.127v-1.141h1.127v1.141zM30.425 15.982h-1.127v-1.141h1.126v1.141zM29.298 15.982h-1.126v-1.141h1.126v1.141zM28.172 15.982h-1.127v-1.141h1.127v1.141zM25.92 15.982h-1.126v-1.141h1.126v1.141zM24.794 15.982h-1.126v-1.141h1.126v1.141zM18.038 15.982h-1.126v-1.141h1.126v1.141zM11.282 15.982h-1.126v-1.141h1.126v1.141zM10.156 15.982h-1.126v-1.141h1.126v1.141zM7.904 15.982h-1.126v-1.141h1.126v1.141zM6.778 15.982h-1.126v-1.141h1.125v1.141z"></path>
<path d="M5.652 15.982h-1.127v-1.141h1.127v1.141zM36.053 14.841h-1.124v-1.141h1.126v1.14zM31.55 14.841h-1.127v-1.141h1.127v1.14z"></path>
<path d="M30.425 14.841h-1.127v-1.141h1.126v1.14zM29.298 14.841h-1.126v-1.141h1.126v1.14zM24.794 14.841h-1.126v-1.141h1.126v1.14zM23.669 14.841h-1.127v-1.141h1.127v1.14zM12.409 14.841h-1.127v-1.141h1.127v1.14zM11.282 14.841h-1.126v-1.141h1.126v1.14zM6.778 14.841h-1.126v-1.141h1.125v1.14z"></path>
<path d="M5.652 14.841h-1.127v-1.141h1.127v1.14zM4.526 14.841h-1.126v-1.141h1.126v1.14zM32.676 13.699h-1.126v-1.142h1.126v1.142zM31.55 13.699h-1.127v-1.142h1.127v1.142z"></path>
<path d="M30.425 13.699h-1.127v-1.142h1.126v1.142zM27.046 13.699h-1.126v-1.142h1.126v1.142zM23.669 13.699h-1.127v-1.142h1.127v1.142zM22.542 13.699h-1.126v-1.142h1.126v1.142zM13.534 13.699h-1.126v-1.142h1.126v1.142zM12.409 13.699h-1.127v-1.142h1.127v1.142zM9.031 13.699h-1.127v-1.142h1.127v1.142zM5.652 13.699h-1.127v-1.142h1.127v1.142zM4.526 13.699h-1.126v-1.142h1.126v1.142zM3.4 13.699h-1.126v-1.142h1.126v1.142zM28.172 12.557h-1.127v-1.141h1.127v1.141zM27.046 12.557h-1.126v-1.141h1.126v1.141zM22.542 12.557h-1.126v-1.141h1.126v1.141z"></path>
<path d="M21.415 12.557h-1.126v-1.141h1.127v1.141zM14.66 12.557h-1.126v-1.141h1.126v1.141zM13.534 12.557h-1.126v-1.141h1.126v1.141zM9.031 12.557h-1.127v-1.141h1.127v1.141zM7.904 12.557h-1.126v-1.141h1.126v1.141zM29.298 11.416h-1.126v-1.141h1.126v1.141zM28.172 11.416h-1.127v-1.141h1.127v1.141zM27.046 11.416h-1.126v-1.141h1.126v1.141zM21.415 11.416h-1.126v-1.141h1.127v1.141z"></path>
<path d="M20.29 11.416h-1.127v-1.141h1.126v1.141zM15.787 11.416h-1.127v-1.141h1.126v1.141z"></path>
<path d="M14.66 11.416h-1.126v-1.141h1.126v1.141zM9.031 11.416h-1.127v-1.141h1.127v1.141zM7.904 11.416h-1.126v-1.141h1.126v1.141zM6.778 11.416h-1.126v-1.141h1.125v1.141zM29.298 10.274h-1.126v-1.142h1.126v1.142zM28.172 10.274h-1.127v-1.142h1.127v1.142zM20.29 10.274h-1.127v-1.142h1.126v1.142z"></path>
<path d="M19.164 10.274h-1.126v-1.142h1.126v1.142zM16.912 10.274h-1.126v-1.142h1.126v1.142zM15.787 10.274h-1.127v-1.142h1.126v1.142zM7.904 10.274h-1.126v-1.142h1.126v1.142zM6.778 10.274h-1.126v-1.142h1.125v1.142zM29.298 9.132h-1.126v-1.141h1.126v1.141zM19.164 9.132h-1.126v-1.141h1.126v1.141zM16.912 9.132h-1.126v-1.141h1.126v1.141zM6.778 9.132h-1.126v-1.141h1.125v1.141zM34.928 7.992h-1.127v-1.143h1.127v1.141zM1.149 7.992h-1.127v-1.143h1.127v1.141z"></path>
<path d="M34.928 6.85h-1.127v-1.142h1.127v1.142zM33.802 6.85h-1.126v-1.142h1.126v1.142zM23.669 6.85h-1.127v-1.142h1.127v1.142zM22.542 6.85h-1.126v-1.142h1.126v1.142z"></path>
<path d="M21.415 6.85h-1.126v-1.142h1.127v1.142zM14.66 6.85h-1.126v-1.142h1.126v1.142zM13.534 6.85h-1.126v-1.142h1.126v1.142zM12.409 6.85h-1.127v-1.142h1.127v1.142zM2.274 6.85h-1.127v-1.142h1.127v1.142z"></path>
<path d="M1.149 6.85h-1.127v-1.142h1.127v1.142zM34.928 5.708h-1.127v-1.142h1.127v1.142zM33.802 5.708h-1.126v-1.142h1.126v1.142zM32.676 5.708h-1.126v-1.142h1.126v1.142zM24.794 5.708h-1.126v-1.142h1.126v1.142zM23.669 5.708h-1.127v-1.142h1.127v1.142zM22.542 5.708h-1.126v-1.142h1.126v1.142zM19.164 5.708h-1.126v-1.142h1.126v1.142zM16.912 5.708h-1.126v-1.142h1.126v1.142zM13.534 5.708h-1.126v-1.142h1.126v1.142zM12.409 5.708h-1.127v-1.142h1.127v1.142zM11.282 5.708h-1.126v-1.142h1.126v1.142zM3.4 5.708h-1.126v-1.142h1.126v1.142z"></path>
<path d="M2.274 5.708h-1.127v-1.142h1.127v1.142z"></path>
<path d="M1.149 5.708h-1.127v-1.142h1.127v1.142zM33.802 4.566h-1.126v-1.141h1.126v1.141zM32.676 4.566h-1.126v-1.141h1.126v1.141zM31.55 4.566h-1.127v-1.141h1.127v1.141zM25.92 4.566h-1.126v-1.141h1.126v1.141zM24.794 4.566h-1.126v-1.141h1.126v1.141zM23.669 4.566h-1.127v-1.141h1.127v1.141zM20.29 4.566h-1.127v-1.141h1.126v1.141z"></path>
<path d="M19.164 4.566h-1.126v-1.141h1.126v1.141zM16.912 4.566h-1.126v-1.141h1.126v1.141zM15.787 4.566h-1.127v-1.141h1.126v1.141zM12.409 4.566h-1.127v-1.141h1.127v1.141zM11.282 4.566h-1.126v-1.141h1.126v1.141zM10.156 4.566h-1.126v-1.141h1.126v1.141zM4.526 4.566h-1.126v-1.141h1.126v1.141zM3.4 4.566h-1.126v-1.141h1.126v1.141z"></path>
<path d="M2.274 4.566h-1.127v-1.141h1.127v1.141zM32.676 3.425h-1.126v-1.141h1.126v1.141zM31.55 3.425h-1.127v-1.141h1.127v1.141z"></path>
<path d="M30.425 3.425h-1.127v-1.141h1.126v1.141zM21.415 3.425h-1.126v-1.141h1.127v1.141z"></path>
<path d="M20.29 3.425h-1.127v-1.141h1.126v1.141z"></path>
<path d="M19.164 3.425h-1.126v-1.141h1.126v1.141zM16.912 3.425h-1.126v-1.141h1.126v1.141zM15.787 3.425h-1.127v-1.141h1.126v1.141z"></path>
<path d="M14.66 3.425h-1.126v-1.141h1.126v1.141zM5.652 3.425h-1.127v-1.141h1.127v1.141zM4.526 3.425h-1.126v-1.141h1.126v1.141zM3.4 3.425h-1.126v-1.141h1.126v1.141zM36.053 2.284h-1.124v-1.143h1.126v1.142zM31.55 2.284h-1.127v-1.143h1.127v1.142z"></path>
<path d="M30.425 2.284h-1.127v-1.143h1.126v1.142zM29.298 2.284h-1.126v-1.143h1.126v1.142zM21.415 2.284h-1.126v-1.143h1.127v1.142z"></path>
<path d="M20.29 2.284h-1.127v-1.143h1.126v1.142zM15.787 2.284h-1.127v-1.143h1.126v1.142z"></path>
<path d="M14.66 2.284h-1.126v-1.143h1.126v1.142zM6.778 2.284h-1.126v-1.143h1.125v1.142z"></path>
<path d="M5.652 2.284h-1.127v-1.143h1.127v1.142zM4.526 2.284h-1.126v-1.143h1.126v1.142zM36.053 1.141h-1.124v-1.141h1.126v1.141zM34.928 1.141h-1.127v-1.141h1.127v1.141zM30.425 1.141h-1.127v-1.141h1.126v1.141zM29.298 1.141h-1.126v-1.141h1.126v1.141zM28.172 1.141h-1.127v-1.141h1.127v1.141zM21.415 1.141h-1.126v-1.141h1.127v1.141zM14.66 1.141h-1.126v-1.141h1.126v1.141zM7.904 1.141h-1.126v-1.141h1.126v1.141z"></path>
<path d="M6.778 1.141h-1.126v-1.141h1.125v1.141z"></path>
<path d="M5.652 1.141h-1.127v-1.141h1.127v1.141zM1.149 1.141h-1.127v-1.141h1.127v1.141z"></path>
</svg>
